# AST/ASF file generated using VICON BodyLanguage
# -----------------------------------------------
:version 1.10
:name VICON
:units
  mass 1.0
  length 0.45
  angle deg
:documentation
   .ast/.asf automatically generated from VICON data using
   VICON BodyBuilder and BodyLanguage model FoxedUp or BRILLIANT.MOD
:root
   order TX TY TZ RX RY RZ
   axis XYZ
   position 0 0 0  
   orientation 0 0 0 
:bonedata
  begin
     id 1 
     name lhipjoint
     direction 0.577973 -0.728611 0.367523 
     length 2.48544 
     axis 0 0 0  XYZ
  end
  begin
     id 2 
     name lfemur
     direction 0.34202 -0.939693 0  
     length 7.1921  
     axis 0 0 20  XYZ
    dof rx ry rz
    limits (-160.0 20.0)
           (-70.0 70.0)
           (-60.0 70.0)
  end
  begin
     id 3 
     name ltibia
     direction 0.34202 -0.939693 0   
     length 7.71059   
     axis 0 0 20   XYZ
    dof rx
    limits (-10.0 170.0)
  end
  begin
     id 4 
     name lfoot
     direction 0.089538 -0.246004 0.965124   
     length 2.19909   
     axis -90 7.62852e-016 20   XYZ
    dof rx rz
    limits (-45.0 90.0)
           (-70.0 20.0)
  end
  begin
     id 5 
     name ltoes
     direction 1.53544e-011 -4.21829e-011 1   
     length 1.10116   
     axis -90 7.62852e-016 20   XYZ
    dof rx
    limits (-90.0 20.0)
  end
  begin
     id 6 
     name rhipjoint
     direction -0.554414 -0.743062 0.374812   
     length 2.4371  
     axis 0 0 0  XYZ 
  end
  begin
     id 7 
     name rfemur
     direction -0.34202 -0.939693 0   
     length 7.47254   
     axis 0 0 -20   XYZ
    dof rx ry rz
    limits (-160.0 20.0)
           (-70.0 70.0)
           (-70.0 60.0)
  end
  begin
     id 8 
     name rtibia
     direction -0.34202 -0.939693 0   
     length 7.65855   
     axis 0 0 -20   XYZ
    dof rx
    limits (-10.0 170.0)
 end
 begin
     id 9 
     name rfoot
     direction -0.133779 -0.367555 0.92033   
     length 2.43006  
     axis -90 -7.62852e-016 -20   XYZ
    dof rx rz
    limits (-45.0 90.0)
           (-20.0 70.0)
  end
  begin
     id 10 
     name rtoes
     direction -1.53563e-011 -4.21889e-011 1   
     length 1.19625   
     axis -90 -7.62852e-016 -20   XYZ
    dof rx
    limits (-90.0 20.0)
  end
  begin
     id 11 
     name lowerback
     direction 0.0249066 0.998043 -0.0573585   
     length 2.08485   
     axis 0 0 0   XYZ
    dof rx ry rz
    limits (-20.0 45.0)
           (-30.0 30.0)
           (-30.0 30.0)
  end
  begin
     id 12 
     name upperback
     direction 0.0237884 0.999673 0.00943178   
     length 2.08515   
     axis 0 0 0   XYZ
    dof rx ry rz
    limits (-20.0 45.0)
           (-30.0 30.0)
           (-30.0 30.0)
  end
  begin
     id 13 
     name thorax
     direction 0.0106671 0.999301 0.0358174   
     length 2.09037   
     axis 0 0 0   XYZ
    dof rx ry rz
    limits (-20.0 45.0)
           (-30.0 30.0)
           (-30.0 30.0)
  end
  begin
     id 14 
     name lowerneck
     direction -0.0580016 0.987052 0.149546   
     length 1.84454   
     axis 0 0 0   XYZ
    dof rx ry rz
    limits (-20.0 45.0)
           (-30.0 30.0)
           (-30.0 30.0)
  end
  begin
     id 15 
     name upperneck
     direction 0.079456 0.981963 -0.171567   
     length 1.88141   
     axis 0 0 0   XYZ
    dof rx ry rz
    limits (-20.0 45.0)
           (-30.0 30.0)
           (-30.0 30.0)
  end
  begin
     id 16
     name head
     direction 0.0262167 0.9967 -0.0768276  
     length 1.89541  
     axis 0 0 0   XYZ
    dof rx ry rz
    limits (-20.0 45.0)
           (-30.0 30.0)
           (-30.0 30.0)
  end
  begin
     id 17 
     name lclavicle
     direction 0.946135 0.322134 -0.0325326  
     length 3.949  
     axis 0 0 0   XYZ
    dof ry rz
    limits (-20.0 10.0)
           (0.0 20.0)
  end
  begin
     id 18 
     name lhumerus
     direction 1 -4.48964e-011 1.94005e-028   
     length 5.10995   
     axis 180 -30 -90   XYZ
    dof rx ry rz
    limits (-60.0 90.0)
           (-90.0 90.0)
           (-90.0 90.0)
  end
  begin
     id 19
     name lradius
     direction 1 -4.48976e-011 2.87852e-027   
     length 3.21207   
     axis 180 -30 -90   XYZ
    dof rx
    limits (-10.0 170.0)
  end
  begin
     id 20
     name lwrist
     direction 1 -4.48963e-011 1.9975e-027   
     length 1.60604   
     axis 2.96054e-016 90 90   XYZ
    dof ry
    limits (-180.0 0.0)
 end
  begin
     id 21 
     name lhand
     direction 1 -4.48919e-011 4.00227e-027   
     length 0.63349   
     axis -2.5488e-015 90 90   XYZ
    dof rx rz
    limits (-90.0 90.0)
           (-45.0 45.0)
  end
  begin
     id 22 
     name lfingers
     direction 1 -4.49037e-011 7.9652e-027   
     length 0.510736   
     axis -5.0975e-015 90 90   XYZ
    dof rx
    limits (0.0 90.0)
  end
  begin
     id 23
     name lthumb
     direction 0.707107 -6.34922e-011 0.707107   
     length 0.733318   
     axis -90 45 -4.48553e-014   XYZ
    dof rx rz
    limits (-45.0 45.0)
           (-45.0 45.0)
  end
  begin
     id 24 
     name rclavicle
     direction -0.940085 0.328911 -0.0897654   
     length 3.93848  
     axis 0 0 0   XYZ 
    dof ry rz
    limits (-10.0 20.0)
           (-20.0 0.0)
  end
  begin
     id 25 
     name rhumerus
     direction -1 -4.48958e-011 3.02044e-027  
     length 5.25109   
     axis 180 30 90   XYZ
    dof rx ry rz
    limits (-90.0 60.0)
           (-90.0 90.0)
           (-90.0 90.0)
  end
  begin
     id 26 
     name rradius
     direction -1 -4.4897e-011 9.78352e-028   
     length 3.28364   
     axis 180 30 90   XYZ
    dof rx
    limits (-10.0 170.0)
  end
  begin
     id 27 
     name rwrist
     direction -1 -4.48943e-011 1.99918e-027   
     length 1.64182   
     axis 2.96054e-016 -90 -90   XYZ
    dof ry
    limits (-180.0 0.0)
  end
  begin
     id 28
     name rhand
     direction -1 -4.49024e-011 3.98478e-027   
     length 0.599745   
     axis -2.5488e-015 -90 -90   XYZ
    dof rx rz
    limits (-90.0 90.0)
           (-45.0 45.0)
  end
  begin
     id 29
     name rfingers
     direction -1 -4.48914e-011 8.00621e-027   
     length 0.48353   
     axis -5.0975e-015 -90 -90   XYZ
    dof rx
    limits (0.0 90.0)
  end
  begin
     id 30
     name rthumb
     direction -0.707107 -6.34992e-011 0.707107   
     length 0.694255   
     axis -90 -45 4.48553e-014   XYZ
    dof rx rz
    limits (-45.0 45.0)
           (-45.0 45.0)
  end
:hierarchy
  begin
    root lhipjoint rhipjoint lowerback
    lhipjoint lfemur
    lfemur ltibia
    ltibia lfoot
    lfoot ltoes
    rhipjoint rfemur
    rfemur rtibia
    rtibia rfoot
    rfoot rtoes
    lowerback upperback
    upperback thorax
    thorax lowerneck lclavicle rclavicle
    lowerneck upperneck
    upperneck head
    lclavicle lhumerus
    lhumerus lradius
    lradius lwrist
    lwrist lhand lthumb
    lhand lfingers
    rclavicle rhumerus
    rhumerus rradius
    rradius rwrist
    rwrist rhand rthumb
    rhand rfingers
  end

#!OML:ASF E:\CV Data\Top Level 1\Subject 1\Session 1\player.ASF
:FULLY-SPECIFIED
:DEGREES
364
root 5.02788 17.0312 -22.711 19.4594 10.2186 0.700018
lowerback 42.1886 -1.40204 5.84716
upperback 9.93707 1.41721 4.51684
thorax -8.89568 0.577468 1.24087
lowerneck -14.8902 -10.5947 -14.1443
upperneck 3.34347 -13.1613 17.4189
head 5.61232 -5.82272 6.42102
rclavicle -9.54166e-015 2.22639e-014
rhumerus 7.25474 12.0606 -78.0574
rradius 81.1804
rwrist 14.5041
rhand -35.567 24.9227
rfingers 7.12502
rthumb -8.692 -4.87833
lclavicle -9.54166e-015 2.22639e-014
lhumerus 17.2998 -31.0844 95.8867
lradius 66.6797
lwrist 14.2364
lhand -30.7853 27.966
lfingers 7.12502
lthumb -4.07581 57.9067
rfemur -49.8394 -6.52198 19.6779
rtibia 51.1112
rfoot -16.497 -17.2675
rtoes 0.510629
lfemur -48.5173 3.83613 -16.2072
ltibia 38.6465
lfoot -7.73518 -10.291
ltoes -4.51127
365
root 5.0287 17.0277 -22.6969 19.217 10.2609 0.593731
lowerback 41.8949 -1.49958 5.8555
upperback 9.84975 1.27035 4.41264
thorax -8.90333 0.513201 1.18326
lowerneck -14.5229 -10.537 -14.1927
upperneck 2.22309 -13.0267 17.8015
head 5.22644 -5.78724 6.59235
rclavicle -1.59028e-014 -3.57812e-014
rhumerus 5.93058 12.3237 -78.238
rradius 82.8804
rwrist 15.0248
rhand -36.1188 26.6083
rfingers 7.12502
rthumb -9.22442 -3.16995
lclavicle -1.59028e-014 -3.57812e-014
lhumerus 16.7121 -31.1879 95.8531
lradius 66.6767
lwrist 15.6266
lhand -29.9264 28.634
lfingers 7.12502
lthumb -3.24634 58.5891
rfemur -49.5472 -6.52028 19.7821
rtibia 51.1567
rfoot -16.5996 -17.3054
rtoes 0.474021
lfemur -48.3072 3.78452 -16.0435
ltibia 38.8208
lfoot -7.88836 -10.2005
ltoes -4.59251
366
root 5.03004 17.0239 -22.6817 18.9811 10.2954 0.477657
lowerback 41.5871 -1.57108 5.84256
upperback 9.76103 1.14885 4.34243
thorax -8.90985 0.459551 1.16199
lowerneck -14.1453 -10.4812 -14.2559
upperneck 1.00367 -12.8742 18.1583
head 4.80771 -5.74925 6.76239
rclavicle 2.54444e-014 -2.38542e-014
rhumerus 4.61398 12.5261 -78.3648
rradius 84.4895
rwrist 16.6738
rhand -37.4726 28.2676
rfingers 7.12502
rthumb -10.5306 -1.44856
lclavicle 2.54444e-014 -2.38542e-014
lhumerus 16.0964 -31.3282 95.8985
lradius 66.7253
lwrist 17.2052
lhand -29.0366 29.1529
lfingers 7.12502
lthumb -2.3871 59.1193
rfemur -49.2597 -6.52737 19.9009
rtibia 51.1982
rfoot -16.7035 -17.3262
rtoes 0.423866
lfemur -48.1017 3.72652 -15.8632
ltibia 38.9986
lfoot -8.05383 -10.0964
ltoes -4.69538
367
root 5.0316 17.0206 -22.6654 18.7367 10.3133 0.35338
lowerback 41.2815 -1.61759 5.8059
upperback 9.67714 1.05067 4.29803
thorax -8.91252 0.415922 1.17062
lowerneck -13.7572 -10.4233 -14.3243
upperneck -0.31215 -12.7011 18.4904
head 4.35646 -5.70681 6.931
rclavicle -2.38542e-014 -3.33958e-014
rhumerus 3.32163 12.6914 -78.4399
rradius 86.0822
rwrist 19.0914
rhand -39.3421 29.207
rfingers 7.12502
rthumb -12.3335 -0.409279
lclavicle -2.38542e-014 -3.33958e-014
lhumerus 15.457 -31.5003 96.0109
lradius 66.8318
lwrist 18.9383
lhand -28.1329 29.4699
lfingers 7.12502
lthumb -1.51425 59.4442
rfemur -48.9576 -6.53538 20.0288
rtibia 51.2321
rfoot -16.8114 -17.3264
rtoes 0.37493
lfemur -47.879 3.67315 -15.6709
ltibia 39.1752
lfoot -8.23009 -9.98487
ltoes -4.8279
368
root 5.03339 17.0178 -22.6481 18.4785 10.3106 0.226163
lowerback 40.9852 -1.64342 5.74604
upperback 9.59738 0.970749 4.27147
thorax -8.91378 0.38019 1.2026
lowerneck -13.3457 -10.3607 -14.3983
upperneck -1.71498 -12.5082 18.8079
head 3.87484 -5.65966 7.10251
rclavicle 6.36111e-015 -3.33958e-014
rhumerus 2.06016 12.8537 -78.4767
rradius 87.7193
rwrist 21.6912
rhand -41.2654 28.9985
rfingers 7.12502
rthumb -14.1874 -0.49698
lclavicle 6.36111e-015 -3.33958e-014
lhumerus 14.7874 -31.6951 96.1881
lradius 66.9984
lwrist 20.7922
lhand -27.1955 29.6316
lfingers 7.12502
lthumb -0.608944 59.6105
rfemur -48.6335 -6.54178 20.1577
rtibia 51.2561
rfoot -16.9173 -17.309
rtoes 0.316219
lfemur -47.6294 3.63023 -15.4762
ltibia 39.3472
lfoot -8.41587 -9.86712
ltoes -4.98433
369
root 5.0356 17.0155 -22.6302 18.2091 10.2895 0.0986656
lowerback 40.7081 -1.66011 5.67595
upperback 9.51166 0.900576 4.25108
thorax -8.92721 0.348345 1.24258
lowerneck -12.9064 -10.287 -14.4717
upperneck -3.1865 -12.2909 19.1075
head 3.36637 -5.60486 7.27608
rclavicle 0 3.26007e-014
rhumerus 0.830265 13.0724 -78.5065
rradius 89.418
rwrist 23.7812
rhand -42.7384 27.6323
rfingers 7.12502
rthumb -15.6064 -1.75808
lclavicle 0 3.26007e-014
lhumerus 14.074 -31.9074 96.4236
lradius 67.2266
lwrist 22.7358
lhand -26.2131 29.6636
lfingers 7.12502
lthumb 0.33991 59.6431
rfemur -48.2919 -6.54918 20.2842
rtibia 51.2714
rfoot -17.0229 -17.2721
rtoes 0.254237
lfemur -47.3581 3.59768 -15.2848
ltibia 39.5156
lfoot -8.6045 -9.74376
ltoes -5.14189
370
root 5.03823 17.0136 -22.6118 17.929 10.2474 -0.0280337
lowerback 40.4556 -1.66938 5.59964
upperback 9.41522 0.839603 4.23049
thorax -8.95962 0.320099 1.28205
lowerneck -12.4349 -10.2017 -14.5412
upperneck -4.70749 -12.0523 19.3906
head 2.83641 -5.54319 7.4517
rclavicle 2.06736e-014 1.11319e-014
rhumerus -0.35555 13.4033 -78.562
rradius 91.1441
rwrist 24.7905
rhand -43.4412 25.57
rfingers 7.12502
rthumb -16.2832 -3.76625
lclavicle 2.06736e-014 1.11319e-014
lhumerus 13.3097 -32.1411 96.7076
lradius 67.5195
lwrist 24.7467
lhand -25.1786 29.6285
lfingers 7.12502
lthumb 1.33903 59.604
rfemur -47.9344 -6.5538 20.4067
rtibia 51.2796
rfoot -17.1234 -17.2226
rtoes 0.174086
lfemur -47.0661 3.581 -15.1006
ltibia 39.6832
lfoot -8.7957 -9.61805
ltoes -5.28258
371
root 5.04139 17.0114 -22.5933 17.6541 10.1878 -0.15146
lowerback 40.2126 -1.67624 5.52057
upperback 9.30198 0.781846 4.20631
thorax -9.01308 0.292782 1.31799
lowerneck -11.9358 -10.1029 -14.6044
upperneck -6.25114 -11.7933 19.6531
head 2.29287 -5.47384 7.62738
rclavicle -9.54166e-015 3.97569e-014
rhumerus -1.49171 13.9049 -78.6675
rradius 92.8437
rwrist 24.3676
rhand -43.4787 23.9457
rfingers 7.12502
rthumb -16.3193 -5.38763
lclavicle -9.54166e-015 3.97569e-014
lhumerus 12.4879 -32.3934 97.0343
lradius 67.8769
lwrist 26.8045
lhand -24.1242 29.6059
lfingers 7.12502
lthumb 2.35742 59.5726
rfemur -47.5845 -6.55845 20.5242
rtibia 51.2858
rfoot -17.2176 -17.16
rtoes 0.0773913
lfemur -46.7772 3.5798 -14.9286
ltibia 39.8552
lfoot -8.98841 -9.48817
ltoes -5.41435
372
root 5.04514 17.0089 -22.5748 17.3865 10.1125 -0.271937
lowerback 39.9775 -1.68597 5.44162
upperback 9.17074 0.721614 4.17584
thorax -9.08836 0.263866 1.34841
lowerneck -11.4211 -9.98941 -14.6581
upperneck -7.78944 -11.5152 19.8895
head 1.74474 -5.39574 7.79991
rclavicle 1.43125e-014 6.36111e-015
rhumerus -2.56918 14.5965 -78.8406
rradius 94.4905
rwrist 22.5409
rhand -42.9133 23.1303
rfingers 7.12502
rthumb -15.7748 -6.24692
lclavicle 1.43125e-014 6.36111e-015
lhumerus 11.6085 -32.6567 97.3967
lradius 68.3018
lwrist 28.8843
lhand -23.089 29.6659
lfingers 7.12502
lthumb 3.3572 59.6192
rfemur -47.2444 -6.56177 20.6362
rtibia 51.2914
rfoot -17.31 -17.0857
rtoes -0.0208204
lfemur -46.4956 3.59462 -14.7696
ltibia 40.0332
lfoot -9.18195 -9.35655
ltoes -5.52559
